<svg xmlns="http://www.w3.org/2000/svg" width="960" height="360" viewBox="0 0 960 360" role="img" aria-label="REWE Mitarbeiterkarte">
  <defs>
    <linearGradient id="cardBg" x1="0" x2="0" y1="0" y2="1">
      <stop offset="0%" stop-color="#f8fafc"/>
      <stop offset="58%" stop-color="#eef2ff"/>
      <stop offset="100%" stop-color="#dbeafe"/>
    </linearGradient>
    <linearGradient id="roof" x1="0" x2="1" y1="0" y2="1">
      <stop offset="0%" stop-color="#0f172a"/>
      <stop offset="100%" stop-color="#334155"/>
    </linearGradient>
  </defs>

  <rect x="0" y="0" width="960" height="360" rx="20" fill="url(#cardBg)"/>
  <rect x="0" y="112" width="960" height="10" fill="#facc15"/>

  <text x="70" y="74" font-family="Arial, Helvetica, sans-serif" font-size="64" font-weight="900" fill="#1f2937">REWE</text>
  <rect x="332" y="40" width="18" height="18" fill="#dc2626"/>
  <rect x="356" y="40" width="18" height="18" fill="#f59e0b"/>
  <rect x="380" y="40" width="18" height="18" fill="#facc15"/>
  <text x="335" y="82" font-family="Arial, Helvetica, sans-serif" font-size="21" font-weight="700" fill="#6b7280">GROUP</text>

  <text x="70" y="167" font-family="Arial, Helvetica, sans-serif" font-size="44" letter-spacing="10" font-weight="800" fill="#b91c1c">MITARBEITERKARTE</text>

  <g transform="translate(540,178)">
    <text x="0" y="36" font-family="Arial, Helvetica, sans-serif" font-size="62" font-weight="900" fill="#64748b" opacity="0.92">REWE</text>
    <rect x="178" y="2" width="14" height="14" fill="#dc2626"/>
    <rect x="198" y="2" width="14" height="14" fill="#f59e0b"/>
    <rect x="218" y="2" width="14" height="14" fill="#facc15"/>
  </g>

  <g transform="translate(560,220)">
    <ellipse cx="180" cy="70" rx="190" ry="34" fill="#64748b" opacity="0.35"/>
    <path d="M20 80 C80 20, 280 20, 340 80 L312 80 C267 45, 93 45, 48 80 Z" fill="url(#roof)"/>
    <rect x="58" y="80" width="244" height="120" rx="12" fill="#e2e8f0"/>
    <rect x="90" y="100" width="180" height="78" rx="8" fill="#94a3b8"/>
    <rect x="120" y="110" width="12" height="58" fill="#e2e8f0"/>
    <rect x="144" y="110" width="12" height="58" fill="#e2e8f0"/>
    <rect x="168" y="110" width="12" height="58" fill="#e2e8f0"/>
    <rect x="192" y="110" width="12" height="58" fill="#e2e8f0"/>
    <rect x="216" y="110" width="12" height="58" fill="#e2e8f0"/>
  </g>
</svg>
